<?xml version="1.0" ?><svg data-name="Layer 1" id="Layer_1" viewBox="0 0 64 64" xmlns="http://www.w3.org/2000/svg"><defs><style>
      .cls-1 {
        fill: #f76c5e;
      }

      .cls-2 {
        fill: #e7ecef;
      }

      .cls-3 {
        fill: #8b8c89;
      }

      .cls-4 {
        fill: #bc6c25;
      }

      .cls-5 {
        fill: #a3cef1;
      }

      .cls-6 {
        fill: #dda15e;
      }

      .cls-7 {
        fill: #274c77;
      }
    </style></defs><polygon class="cls-1" points="47 9 47 25 51 25 51 9 53 9 49 3 45 9 47 9"/><rect class="cls-4" height="18" width="24" x="37" y="25"/><polyline class="cls-7" points="53 25 53 33 49 29 45 33 45 25"/><path class="cls-6" d="M24.58,41.04l-3,1.29c-1.01,.43-2.15,.43-3.15,0l-3-1.29c-1.47-.63-2.42-2.08-2.42-3.68v-5.36c0-3.31,2.69-6,6-6h2c3.31,0,6,2.69,6,6v5.36c0,1.6-.95,3.05-2.42,3.68Z"/><path class="cls-7" d="M33.14,47c-1.82-1.85-4.35-3-7.14-3h-3c0,1.66-1.34,3-3,3s-3-1.34-3-3h-3c-5.52,0-10,4.48-10,10v7H26l4-14h3.14Z"/><path class="cls-6" d="M15,57h2c1.1,0,2,.9,2,2v2h-4v-4h0Z"/><path class="cls-7" d="M10,33.73c-.29,.17-.64,.27-1,.27-1.1,0-2-.9-2-2s.9-2,2-2c.42,0,.81,.13,1.14,.36"/><path class="cls-7" d="M30,33.73c.29,.17,.64,.27,1,.27,1.1,0,2-.9,2-2s-.9-2-2-2c-.42,0-.81,.13-1.14,.36"/><path class="cls-4" d="M17,41.71l1.42,.61c1.01,.44,2.15,.44,3.16,0l1.42-.61v2.29c0,1.66-1.34,3-3,3s-3-1.34-3-3v-2.29Z"/><polyline class="cls-3" points="26 61 30 47 52 47 48 61"/><path class="cls-7" d="M26.4,29.38h-.01c-.57-.23-1.23-.38-2.06-.38-4.33,0-4.33,4-8.67,4-1.13,0-1.97-.27-2.66-.67v-.33c0-3.31,2.69-6,6-6h2c2.37,0,4.42,1.38,5.39,3.38h.01Z"/><path class="cls-2" d="M27,36.6v-4.6c0-3.31-2.69-6-6-6h-2c-3.31,0-6,2.69-6,6v4h-2c-.55,0-1-.45-1-1v-3c0-5.52,4.48-10,10-10,2.76,0,5.26,1.12,7.07,2.93s2.93,4.31,2.93,7.07v3.18c0,.48-.34,.89-.8,.98l-2.2,.44Z"/><path class="cls-5" d="M39,53c.55,0,1,.45,1,1s-.45,1-1,1v-2Z"/><path d="M52,46h-18.47c-2.05-1.93-4.71-3-7.53-3h-2v-.63l.97-.42c1.82-.78,3-2.56,3.03-4.54l1.4-.28c.93-.19,1.61-1.01,1.61-1.96v-.18c1.65,0,3-1.35,3-3s-1.35-3-3-3c-.14,0-.28,.01-.42,.03-1.3-4.63-5.55-8.03-10.58-8.03s-9.28,3.41-10.58,8.03c-.14-.02-.28-.03-.42-.03-1.65,0-3,1.35-3,3s1.35,3,3,3c0,1.1,.9,2,2,2h1v.36c0,2,1.19,3.81,3.03,4.6l.97,.42v.63h-2c-6.07,0-11,4.93-11,11v6h-1v2H52v-2h-2.67l3.64-12.73c.09-.3,.03-.63-.16-.88-.19-.25-.48-.4-.8-.4Zm-21-15c.55,0,1,.45,1,1s-.45,1-1,1v-1c0-.33-.02-.66-.05-.99,.02,0,.03,0,.05,0Zm-22,1v1c-.55,0-1-.45-1-1s.45-1,1-1c.02,0,.03,0,.05,0-.03,.33-.05,.66-.05,.99Zm3,0v3h-1v-3c0-4.96,4.04-9,9-9s9,4.04,9,9v3.18l-1,.2v-3.38c0-3.86-3.14-7-7-7h-2c-3.86,0-7,3.14-7,7Zm11.99-3.98c-2.33,.1-3.57,1.23-4.67,2.24-1.05,.97-1.88,1.74-3.66,1.74-.62,0-1.15-.09-1.63-.28,.15-2.62,2.31-4.72,4.97-4.72h2c1.13,0,2.16,.39,2.99,1.02Zm-8.17,12.1c-1.1-.47-1.82-1.56-1.82-2.76v-3.56c.52,.13,1.07,.2,1.66,.2,2.56,0,3.87-1.2,5.02-2.27,1.05-.97,1.88-1.73,3.65-1.73,.49,0,.91,.08,1.32,.2,.22,.56,.35,1.16,.35,1.8v3.78l-6.2,1.24,.39,1.96,5.77-1.15c-.16,1.01-.82,1.88-1.78,2.29l-3,1.29c-.75,.32-1.61,.32-2.36,0l-3-1.29Zm6.18,3.11v.77c0,1.1-.9,2-2,2s-2-.9-2-2v-.77h.03c.63,.28,1.3,.42,1.97,.42s1.34-.13,1.97-.4h.03Zm-4,16.76h-2v-2h1c.55,0,1,.45,1,1v1Zm2,0v-1c0-1.65-1.35-3-3-3h-6v-2.59l1.71-1.71-1.41-1.41-2,2c-.19,.19-.29,.44-.29,.71v4c0,.55,.45,1,1,1h4v2H5v-6c0-4.96,4.04-9,9-9h2.13c.45,1.72,2.01,3,3.87,3s3.43-1.28,3.87-3h2.13c1.45,0,2.85,.35,4.11,1h-.11c-.45,0-.84,.3-.96,.73l-3.79,13.27h-5.25Zm27.25,0H27.33l3.43-12h19.92l-3.43,12Z"/><path d="M61,24h-13V9c0-.55-.45-1-1-1h-.13l2.13-3.2,2.13,3.2h-.13c-.55,0-1,.45-1,1v2h2v-1h1c.37,0,.71-.2,.88-.53,.17-.33,.15-.72-.05-1.03l-4-6c-.37-.56-1.29-.56-1.66,0l-4,6c-.2,.31-.22,.7-.05,1.03,.17,.33,.51,.53,.88,.53h1v14h-9c-.55,0-1,.45-1,1v18c0,.55,.45,1,1,1h24c.55,0,1-.45,1-1V25c0-.55-.45-1-1-1Zm-15,2h6v4.59l-2.29-2.29c-.39-.39-1.02-.39-1.41,0l-2.29,2.29v-4.59Zm14,16h-22V26h6v7c0,.4,.24,.77,.62,.92,.37,.16,.8,.07,1.09-.22l3.29-3.29,3.29,3.29c.19,.19,.45,.29,.71,.29,.13,0,.26-.02,.38-.08,.37-.15,.62-.52,.62-.92v-7h6v16Z"/><rect height="2" width="2" x="50" y="13"/><rect height="2" width="2" x="50" y="17"/><rect height="2" width="2" x="50" y="21"/></svg>