<?xml version="1.0" ?><svg data-name="Layer 1" id="Layer_1" viewBox="0 0 64 64" xmlns="http://www.w3.org/2000/svg"><defs><style>
      .cls-1 {
        fill: #e7ecef;
      }

      .cls-2 {
        fill: #8b8c89;
      }

      .cls-3 {
        fill: #bc6c25;
      }

      .cls-4 {
        fill: #a3cef1;
      }

      .cls-5 {
        fill: #dda15e;
      }

      .cls-6 {
        fill: #6096ba;
      }

      .cls-7 {
        fill: #274c77;
      }
    </style></defs><path class="cls-5" d="M24.58,37.04l-3,1.29c-1.01,.43-2.15,.43-3.15,0l-3-1.29c-1.47-.63-2.42-2.08-2.42-3.68v-5.36c0-3.31,2.69-6,6-6h2c3.31,0,6,2.69,6,6v5.36c0,1.6-.95,3.05-2.42,3.68Z"/><path class="cls-7" d="M33.14,43c-1.82-1.85-4.35-3-7.14-3h-3c0,1.66-1.34,3-3,3s-3-1.34-3-3h-3c-5.52,0-10,4.48-10,10v7H26l4-14h3.14Z"/><path class="cls-5" d="M15,53h2c1.1,0,2,.9,2,2v2h-4v-4h0Z"/><path class="cls-7" d="M10,29.73c-.29,.17-.64,.27-1,.27-1.1,0-2-.9-2-2s.9-2,2-2c.42,0,.81,.13,1.14,.36"/><path class="cls-7" d="M30,29.73c.29,.17,.64,.27,1,.27,1.1,0,2-.9,2-2s-.9-2-2-2c-.42,0-.81,.13-1.14,.36"/><path class="cls-3" d="M17,37.71l1.42,.61c1.01,.44,2.15,.44,3.16,0l1.42-.61v2.29c0,1.66-1.34,3-3,3s-3-1.34-3-3v-2.29Z"/><polyline class="cls-2" points="26 57 30 43 52 43 48 57"/><path class="cls-7" d="M26.4,25.38h-.01c-.57-.23-1.23-.38-2.06-.38-4.33,0-4.33,4-8.67,4-1.13,0-1.97-.27-2.66-.67v-.33c0-3.31,2.69-6,6-6h2c2.37,0,4.42,1.38,5.39,3.38h.01Z"/><path class="cls-1" d="M27,32.6v-4.6c0-3.31-2.69-6-6-6h-2c-3.31,0-6,2.69-6,6v4h-2c-.55,0-1-.45-1-1v-3c0-5.52,4.48-10,10-10,2.76,0,5.26,1.12,7.07,2.93s2.93,4.31,2.93,7.07v3.18c0,.48-.34,.89-.8,.98l-2.2,.44Z"/><path class="cls-4" d="M39,49c.55,0,1,.45,1,1s-.45,1-1,1v-2Z"/><path class="cls-6" d="M41,20.71l-6,4.29,1-5h-2c-.55,0-1-.45-1-1V8c0-.55,.45-1,1-1h14c.55,0,1,.45,1,1v6h-7c-.55,0-1,.45-1,1v5.71Z"/><path class="cls-7" d="M61,15v14c0,.55-.45,1-1,1h-3s1,6,1,6l-7-6h-9c-.55,0-1-.45-1-1V15c0-.55,.45-1,1-1h18c.55,0,1,.45,1,1Z"/><path d="M52,56h-2.67l3.64-12.73c.09-.3,.03-.63-.16-.88s-.48-.4-.8-.4h-18.47c-2.05-1.93-4.71-3-7.53-3h-2v-.63l.97-.42c1.82-.78,3-2.56,3.03-4.54l1.4-.28c.93-.19,1.61-1.01,1.61-1.96v-.18c1.65,0,3-1.35,3-3s-1.35-3-3-3c-.14,0-.28,.01-.42,.03-1.3-4.63-5.55-8.03-10.58-8.03s-9.28,3.41-10.58,8.03c-.14-.02-.28-.03-.42-.03-1.65,0-3,1.35-3,3s1.35,3,3,3c0,1.1,.9,2,2,2h1v.36c0,2,1.19,3.81,3.03,4.6l.97,.42v.63h-2c-6.07,0-11,4.93-11,11v6h-1v2H52v-2ZM31,27c.55,0,1,.45,1,1s-.45,1-1,1v-1c0-.33-.02-.66-.05-.99,.02,0,.03,0,.05,0Zm-22,1v1c-.55,0-1-.45-1-1s.45-1,1-1c.02,0,.03,0,.05,0-.03,.33-.05,.66-.05,.99Zm3,0v3h-1v-3c0-4.96,4.04-9,9-9s9,4.04,9,9v3.18l-1,.2v-3.38c0-3.86-3.14-7-7-7h-2c-3.86,0-7,3.14-7,7Zm11.99-3.98c-2.33,.1-3.57,1.23-4.67,2.24-1.05,.97-1.88,1.74-3.66,1.74-.61,0-1.14-.09-1.63-.28,.15-2.62,2.31-4.72,4.97-4.72h2c1.13,0,2.16,.39,2.99,1.02Zm-8.18,12.1c-1.1-.47-1.82-1.56-1.82-2.76v-3.56c.52,.13,1.07,.2,1.66,.2,2.56,0,3.87-1.2,5.02-2.27,1.05-.97,1.88-1.73,3.65-1.73,.49,0,.91,.08,1.32,.2,.22,.56,.35,1.16,.35,1.8v3.78l-6.2,1.24,.39,1.96,5.77-1.15c-.16,1.01-.82,1.88-1.78,2.29l-3,1.29c-.75,.32-1.61,.32-2.36,0l-3-1.29Zm6.18,3.11v.77c0,1.1-.9,2-2,2s-2-.9-2-2v-.77h.03c.63,.28,1.3,.41,1.97,.41s1.34-.13,1.97-.4h.03Zm-4,16.76h-2v-2h1c.55,0,1,.45,1,1v1Zm2,0v-1c0-1.65-1.35-3-3-3h-6v-2.59l1.71-1.71-1.41-1.41-2,2c-.19,.19-.29,.44-.29,.71v4c0,.55,.45,1,1,1h4v2H5v-6c0-4.96,4.04-9,9-9h2.13c.45,1.72,2.01,3,3.87,3s3.43-1.28,3.87-3h2.13c1.45,0,2.85,.35,4.11,1h-.11c-.45,0-.84,.3-.96,.73l-3.79,13.27h-5.25Zm7.33,0l3.43-12h19.92l-3.43,12H27.33Z"/><path d="M60,13h-10v-5c0-1.1-.9-2-2-2h-14c-1.1,0-2,.9-2,2v11c0,1.1,.9,2,2,2h.78l-.76,3.8c-.08,.4,.09,.81,.44,1.04,.17,.11,.35,.16,.54,.16,.2,0,.41-.06,.58-.19l4.42-3.16v6.35c0,1.1,.9,2,2,2h8.63l6.72,5.76c.19,.16,.42,.24,.65,.24,.17,0,.34-.04,.49-.13,.37-.21,.56-.62,.5-1.04l-.81-4.84h1.82c1.1,0,2-.9,2-2V15c0-1.1-.9-2-2-2Zm-20,2v5.2l-3.52,2.52,.5-2.52c.06-.29-.02-.6-.21-.83-.19-.23-.47-.37-.77-.37h-2V8h14v5h-6c-1.1,0-2,.9-2,2Zm20,14h-3c-.29,0-.57,.13-.76,.35-.19,.22-.27,.52-.22,.81l.55,3.29-4.91-4.21c-.18-.16-.41-.24-.65-.24h-9V15h18s0,14,0,14Z"/></svg>